<?xml version="1.0" standalone="no"?>
<!DOCTYPE svg PUBLIC "-//W3C//DTD SVG 1.1//EN" "http://www.w3.org/Graphics/SVG/1.1/DTD/svg11.dtd">
<svg width="800px" height="400px"
     viewBox="0 0 570 290" preserveAspectRatio="none"
	 xmlns="http://www.w3.org/2000/svg" version="1.1"
	 xmlns:xlink="http://www.w3.org/1999/xlink">
<style>
text {
	font-family : Verdana, Tahoma, sans-serif;
	font-size : 11px;
	fill : black;
	stroke : none;
}
/* As at 20060630, Wikipedia's SVG rasteriser couldn't make use of these styles. Leave them in in case it improves. */
#percentage_numbers text {
	text-anchor : end;
}
#x_axis_numbers text {
	text-anchor : middle;
}
</style>
<desc>U.S. Historical Inflation Rate</desc>
<defs>
	<!-- The lines in the graph are scaled significantly. Make sure the stroke width is set appropriately. -->
	<line id="horizontal_line" x1="1650" x2="2007.25" y1="0" y2="0" stroke="#000" stroke-width=".001" />
	<line id="horizontal_line2" x1="1650" x2="2007.25" y1="0" y2="0" stroke="#000" stroke-width=".0003" />
	<line id="horizontal_line3" x1="1650" x2="2007.25" y1="0" y2="0" stroke="#000" stroke-width=".00015" stroke-dasharray="5,5" />
	<line id="vertical_line" x1="0" x2="0" y1=".42" y2="-.25" stroke="#000" stroke-width=".15" />
</defs>

<!-- background -->
<rect x="0" y="0" 
    width="800px" 
    height="400px" 
    style="fill:#ffffff"/>


<!--
	ORDER OF TRANSFORMATIONS:
	(1)	Shift origin from (x, y) to (0, 0) (e.g., from [2004, 0] to [0, 0])
	(2)	Scale as appropriate
	(3)	Shift back to viewport's origin
	(4)	Shift away from edge as desired
	
	In working out your calculations, opt for a number that divides nicely into 100s (e.g., 1, 2, 2.5, 5, 10, 20, 25, etc.)
	
	CALCULATIONS:
	Horizontal	=	Width/Range
				=	800/ 2010-1900
				~	 7
	Vertical	=	[-1 * Height]/Range
				=	-250 / (13000 - 0) 
				~	-.02
-->
<g transform="translate(62 -35)">	
	<g transform="translate(0 290) scale(1.4 -320) translate(-1650 .25)">
		<!-- Positive inflation -->
		<path fill="#7777FF" d="
			M	1666	0
			L	1667	0.076086957
			L	1668	0.03030303
			L	1669	0
			L	1670	0
			L	1671	0.010638298
			L	1672	0
			L	1673	0
			L	1674	0.077777778
			L	1675	0
			L	1676	0.011904762
			L	1677	0.011764706
			L	1678	0
			L	1679	0
			L	1680	0.144578313
			L	1681	0.031578947
			L	1682	0
			L	1683	0
			L	1684	0
			L	1685	0.075
			L	1686	0
			L	1687	0
			L	1688	0
			L	1689	0.013513514
			L	1690	0.026666667
			L	1691	0.051948052
			L	1692	0
			L	1693	0
			L	1694	0.055555556
			L	1695	0
			L	1696	0.171428571
			L	1697	0
			L	1698	0
			L	1699	0.092105263
			L	1700	0
			L	1701	0.049382716
			L	1702	0
			L	1703	0
			L	1704	0.142857143
			L	1705	0
			L	1706	0.075949367
			L	1707	0
			L	1708	0
			L	1709	0.203125
			L	1710	0
			L	1711	0
			L	1712	0
			L	1713	0.061538462
			L	1714	0
			L	1715	0.126984127
			L	1716	0
			L	1717	0.059701493
			L	1718	0
			L	1719	0.059701493
			L	1720	0
			L	1721	0
			L	1722	0.048387097
			L	1723	0.015384615
			L	1724	0.03030303
			L	1725	0.147058824
			L	1726	0
			L	1727	0.041666667
			L	1728	0
			L	1729	0
			L	1730	0
			L	1731	0
			L	1732	0
			L	1733	0.035087719
			L	1734	0
			L	1735	0.035087719
			L	1736	0
			L	1737	0.035714286
			L	1738	0.051724138
			L	1739	0
			L	1740	0.055555556
			L	1741	0.385964912
			L	1742	0
			L	1743	0
			L	1744	0
			L	1745	0
			L	1746	0.018181818
			L	1747	0.107142857
			L	1748	0.14516129
			L	1749	0.028169014
			L	1750	0
			L	1751	0.01369863
			L	1752	0.013513514
			L	1753	0
			L	1754	0
			L	1755	0
			L	1756	0
			L	1757	0.044776119
			L	1758	0.071428571
			L	1759	0.146666667
			L	1760	0
			L	1761	0
			L	1762	0.078947368
			L	1763	0
			L	1764	0
			L	1765	0.013157895
			L	1766	0.090909091
			L	1767	0
			L	1768	0
			L	1769	0.038461538
			L	1770	0.074074074
			L	1771	0
			L	1772	0.144578313
			L	1773	0
			L	1774	0
			L	1775	0
			L	1776	0.1375
			L	1777	0.21978022
			L	1778	0.297297297
			L	1779	0
			L	1780	0.125984252
			L	1781	0
			L	1782	0.104347826
			L	1783	0
			L	1784	0
			L	1785	0
			L	1786	0
			L	1787	0
			L	1788	0
			L	1789	0
			L	1790	0.032608696
			L	1791	0.031578947
			L	1792	0.020408163
			L	1793	0.03
			L	1794	0.106796117
			L	1795	0.149122807
			L	1796	0.053435115
			L	1797	0
			L	1798	0
			L	1799	0
			L	1800	0.0234375
			L	1801	0.015267176
			L	1802	0
			L	1803	0.053571429
			L	1804	0.042372881
			L	1805	0
			L	1806	0.040983607
			L	1807	0
			L	1808	0.091666667
			L	1809	0
			L	1810	0
			L	1811	0.0703125
			L	1812	0.01459854
			L	1813	0.194244604
			L	1814	0.102409639
			L	1815	0
			L	1816	0
			L	1817	0
			L	1818	0
			L	1819	0
			L	1820	0
			L	1821	0
			L	1822	0.033898305
			L	1823	0
			L	1824	0
			L	1825	0.01980198
			L	1826	0
			L	1827	0.009708738
			L	1828	0
			L	1829	0
			L	1830	0
			L	1831	0
			L	1832	0
			L	1833	0
			L	1834	0.011363636
			L	1835	0.033707865
			L	1836	0.054347826
			L	1837	0.030927835
			L	1838	0
			L	1839	0
			L	1840	0
			L	1841	0.011111111
			L	1842	0
			L	1843	0
			L	1844	0.012987013
			L	1845	0.012820513
			L	1846	0.012658228
			L	1847	0.075
			L	1848	0
			L	1849	0
			L	1850	0.0125
			L	1851	0
			L	1852	0.0125
			L	1853	0
			L	1854	0.086419753
			L	1855	0.022727273
			L	1856	0
			L	1857	0.034090909
			L	1858	0
			L	1859	0.011627907
			L	1860	0
			L	1861	0.057471264
			L	1862	0.141304348
			L	1863	0.247619048
			L	1864	0.251908397
			L	1865	0.036585366
			L	1866	0
			L	1867	0
			L	1868	0
			L	1869	0
			L	1870	0
			L	1871	0
			L	1872	0
			L	1873	0
			L	1874	0
			L	1875	0
			L	1876	0
			L	1877	0
			L	1878	0
			L	1879	0
			L	1880	0.028846154
			L	1881	0
			L	1882	0
			L	1883	0
			L	1884	0
			L	1885	0
			L	1886	0
			L	1887	0.010204082
			L	1888	0
			L	1889	0
			L	1890	0
			L	1891	0
			L	1892	0
			L	1893	0
			L	1894	0
			L	1895	0
			L	1896	0
			L	1897	0
			L	1898	0
			L	1899	0
			L	1900	0.011494253
			L	1901	0
			L	1902	0.011363636
			L	1903	0.033707865
			L	1904	0.010869565
			L	1905	0
			L	1906	0.02173913
			L	1907	0.042553191
			L	1908	0
			L	1909	0
			L	1910	0.053191489
			L	1911	0
			L	1912	0.02020202
			L	1913	0
			L	1914	0.01010101
			L	1915	0.01
			L	1916	0.079207921
			L	1917	0.174311927
			L	1918	0.1796875
			L	1919	0.145695364
			L	1920	0.156069364
			L	1921	0
			L	1922	0
			L	1923	0.017857143
			L	1924	0
			L	1925	0.023391813
			L	1926	0.011428571
			L	1927	0
			L	1928	0
			L	1929	0
			L	1930	0
			L	1931	0
			L	1932	0
			L	1933	0
			L	1934	0.030769231
			L	1935	0.02238806
			L	1936	0.01459854
			L	1937	0.035971223
			L	1938	0
			L	1939	0
			L	1940	0.007194245
			L	1941	0.05
			L	1942	0.108843537
			L	1943	0.061349693
			L	1944	0.01734104
			L	1945	0.022727273
			L	1946	0.083333333
			L	1947	0.143589744
			L	1948	0.080717489
			L	1949	0
			L	1950	0.012605042
			L	1951	0.078838174
			L	1952	0.019230769
			L	1953	0.00754717
			L	1954	0.007490637
			L	1955	0
			L	1956	0.014925373
			L	1957	0.033088235
			L	1958	0.028469751
			L	1959	0.006920415
			L	1960	0.017182131
			L	1961	0.010135135
			L	1962	0.010033445
			L	1963	0.013245033
			L	1964	0.013071895
			L	1965	0.016129032
			L	1966	0.028571429
			L	1967	0.030864198
			L	1968	0.041916168
			L	1969	0.054597701
			L	1970	0.057220708
			L	1971	0.043814433
			L	1972	0.032098765
			L	1973	0.062200957
			L	1974	0.11036036
			L	1975	0.09127789
			L	1976	0.057620818
			L	1977	0.065026362
			L	1978	0.075907591
			L	1979	0.113496933
			L	1980	0.134986226
			L	1981	0.10315534
			L	1982	0.061606161
			L	1983	0.032124352
			L	1984	0.043172691
			L	1985	0.035611165
			L	1986	0.018587361
			L	1987	0.03649635
			L	1988	0.041373239
			L	1989	0.048182587
			L	1990	0.054032258
			L	1991	0.042081102
			L	1992	0.03010279
			L	1993	0.029935852
			L	1994	0.025605536
			L	1995	0.028340081
			L	1996	0.029527559
			L	1997	0.022944551
			L	1998	0.015576324
			L	1999	0.02208589
			L	2000	0.033613445
			L	2001	0.028455285
			L	2002	0.015810277
			L	2003	0.022790439
			L	2004	0.026630435

V 0 z" />
		<!-- Negative inflation -->
		<path fill="#44AA44" d="

			M	1666	0
			L	1667	0
			L	1668	0
			L	1669	-0.068627451
			L	1670	-0.010526316
			L	1671	0
			L	1672	-0.010526316
			L	1673	-0.042553191
			L	1674	0
			L	1675	-0.134020619
			L	1676	0
			L	1677	0
			L	1678	-0.023255814
			L	1679	-0.011904762
			L	1680	0
			L	1681	0
			L	1682	-0.183673469
			L	1683	0
			L	1684	0
			L	1685	0
			L	1686	-0.058139535
			L	1687	0
			L	1688	-0.086419753
			L	1689	0
			L	1690	0
			L	1691	0
			L	1692	-0.061728395
			L	1693	-0.052631579
			L	1694	0
			L	1695	-0.078947368
			L	1696	0
			L	1697	-0.012195122
			L	1698	-0.061728395
			L	1699	0
			L	1700	-0.024096386
			L	1701	0
			L	1702	-0.082352941
			L	1703	-0.012820513
			L	1704	0
			L	1705	-0.102272727
			L	1706	0
			L	1707	-0.047058824
			L	1708	-0.209876543
			L	1709	0
			L	1710	-0.103896104
			L	1711	-0.014492754
			L	1712	-0.044117647
			L	1713	0
			L	1714	-0.086956522
			L	1715	0
			L	1716	-0.056338028
			L	1717	0
			L	1718	-0.056338028
			L	1719	0
			L	1720	-0.070422535
			L	1721	-0.060606061
			L	1722	0
			L	1723	0
			L	1724	0
			L	1725	0
			L	1726	-0.076923077
			L	1727	0
			L	1728	-0.066666667
			L	1729	-0.014285714
			L	1730	0
			L	1731	-0.101449275
			L	1732	-0.080645161
			L	1733	0
			L	1734	-0.033898305
			L	1735	0
			L	1736	-0.050847458
			L	1737	0
			L	1738	0
			L	1739	-0.114754098
			L	1740	0
			L	1741	0
			L	1742	-0.113924051
			L	1743	-0.114285714
			L	1744	-0.080645161
			L	1745	-0.035087719
			L	1746	0
			L	1747	0
			L	1748	0
			L	1749	0
			L	1750	0
			L	1751	0
			L	1752	0
			L	1753	-0.026666667
			L	1754	-0.04109589
			L	1755	-0.028571429
			L	1756	-0.014705882
			L	1757	0
			L	1758	0
			L	1759	0
			L	1760	-0.034883721
			L	1761	-0.084337349
			L	1762	0
			L	1763	0
			L	1764	-0.073170732
			L	1765	0
			L	1766	0
			L	1767	-0.023809524
			L	1768	-0.048780488
			L	1769	0
			L	1770	0
			L	1771	-0.045977011
			L	1772	0
			L	1773	-0.073684211
			L	1774	-0.045454545
			L	1775	-0.047619048
			L	1776	0
			L	1777	0
			L	1778	0
			L	1779	-0.118055556
			L	1780	0
			L	1781	-0.195804196
			L	1782	0
			L	1783	-0.125984252
			L	1784	-0.036036036
			L	1785	-0.056074766
			L	1786	-0.01980198
			L	1787	-0.02020202
			L	1788	-0.041237113
			L	1789	-0.010752688
			L	1790	0
			L	1791	0
			L	1792	0
			L	1793	0
			L	1794	0
			L	1795	0
			L	1796	0
			L	1797	-0.036231884
			L	1798	-0.037593985
			L	1799	0
			L	1800	0
			L	1801	0
			L	1802	-0.157894737
			L	1803	0
			L	1804	0
			L	1805	-0.008130081
			L	1806	0
			L	1807	-0.05511811
			L	1808	0
			L	1809	-0.022900763
			L	1810	0
			L	1811	0
			L	1812	0
			L	1813	0
			L	1814	0
			L	1815	-0.12568306
			L	1816	-0.0875
			L	1817	-0.047945205
			L	1818	-0.043165468
			L	1819	0
			L	1820	-0.082706767
			L	1821	-0.032786885
			L	1822	0
			L	1823	-0.106557377
			L	1824	-0.073394495
			L	1825	0
			L	1826	0
			L	1827	0
			L	1828	-0.048076923
			L	1829	-0.02020202
			L	1830	-0.010309278
			L	1831	-0.0625
			L	1832	-0.011111111
			L	1833	-0.011235955
			L	1834	0
			L	1835	0
			L	1836	0
			L	1837	0
			L	1838	-0.03
			L	1839	0
			L	1840	-0.072164948
			L	1841	0
			L	1842	-0.065934066
			L	1843	-0.094117647
			L	1844	0
			L	1845	0
			L	1846	0
			L	1847	0
			L	1848	-0.046511628
			L	1849	-0.024390244
			L	1850	0
			L	1851	-0.012345679
			L	1852	0
			L	1853	0
			L	1854	0
			L	1855	0
			L	1856	-0.022222222
			L	1857	0
			L	1858	-0.054945055
			L	1859	0
			L	1860	0
			L	1861	0
			L	1862	0
			L	1863	0
			L	1864	0
			L	1865	0
			L	1866	-0.023529412
			L	1867	-0.072289157
			L	1868	-0.038961039
			L	1869	-0.040540541
			L	1870	-0.042253521
			L	1871	-0.066176471
			L	1872	0
			L	1873	-0.015748031
			L	1874	-0.048
			L	1875	-0.042016807
			L	1876	-0.01754386
			L	1877	-0.026785714
			L	1878	-0.04587156
			L	1879	0
			L	1880	0
			L	1881	0
			L	1882	0
			L	1883	-0.018691589
			L	1884	-0.028571429
			L	1885	-0.009803922
			L	1886	-0.02970297
			L	1887	0
			L	1888	0
			L	1889	-0.03030303
			L	1890	-0.020833333
			L	1891	0
			L	1892	0
			L	1893	0
			L	1894	-0.053191489
			L	1895	-0.011235955
			L	1896	0
			L	1897	-0.011363636
			L	1898	0
			L	1899	0
			L	1900	0
			L	1901	0
			L	1902	0
			L	1903	0
			L	1904	0
			L	1905	-0.010752688
			L	1906	0
			L	1907	0
			L	1908	-0.020408163
			L	1909	-0.020833333
			L	1910	0
			L	1911	0
			L	1912	0
			L	1913	-0.01980198
			L	1914	0
			L	1915	0
			L	1916	0
			L	1917	0
			L	1918	0
			L	1919	0
			L	1920	0
			L	1921	-0.105
			L	1922	-0.061452514
			L	1923	0
			L	1924	0
			L	1925	0
			L	1926	0
			L	1927	-0.016949153
			L	1928	-0.017241379
			L	1929	0
			L	1930	-0.023391813
			L	1931	-0.089820359
			L	1932	-0.098684211
			L	1933	-0.051094891
			L	1934	0
			L	1935	0
			L	1936	0
			L	1937	0
			L	1938	-0.020833333
			L	1939	-0.014184397
			L	1940	0
			L	1941	0
			L	1942	0
			L	1943	0
			L	1944	0
			L	1945	0
			L	1946	0
			L	1947	0
			L	1948	0
			L	1949	-0.012448133
			L	1950	0
			L	1951	0
			L	1952	0
			L	1953	0
			L	1954	0
			L	1955	-0.003717472
			L	1956	0
	
V 0 z" />
		<!-- Horizontal gridlines -->
		<g>
			<use xlink:href="#horizontal_line2" x="0" y="-.2" />
			<use xlink:href="#horizontal_line3" x="0" y="-.15" />
			<use xlink:href="#horizontal_line2" x="0" y="-.1" />
			<use xlink:href="#horizontal_line3" x="0" y="-.05" />
			<use xlink:href="#horizontal_line" x="0" y="0" />
			<use xlink:href="#horizontal_line3" x="0" y=".05" />
			<use xlink:href="#horizontal_line2" x="0" y=".1" />
			<use xlink:href="#horizontal_line3" x="0" y=".15" />
			<use xlink:href="#horizontal_line2" x="0" y=".2" />
			<use xlink:href="#horizontal_line3" x="0" y=".25" />
			<use xlink:href="#horizontal_line2" x="0" y=".3" />
			<use xlink:href="#horizontal_line3" x="0" y=".35" />
			<use xlink:href="#horizontal_line2" x="0" y=".4" />
		</g>
		<!-- Vertical ticks -->
		<g>
			<use xlink:href="#vertical_line" x="1650" y="0" />
			<use xlink:href="#vertical_line" x="1700" y="0" />
			<use xlink:href="#vertical_line" x="1750" y="0" />
			<use xlink:href="#vertical_line" x="1800" y="0" />
			<use xlink:href="#vertical_line" x="1850" y="0" />
			<use xlink:href="#vertical_line" x="1900" y="0" />
			<use xlink:href="#vertical_line" x="1950" y="0" />
			<use xlink:href="#vertical_line" x="2000" y="0" />
		</g>
	</g>
		<!-- Text can't be scaled or it goes strange. Its location must be calculated directly. -->
	<text x="230" y="60" text-anchor="middle">U.S. Historical Inflation Rate</text>
	<!-- Y-axis -->
	<g transform="translate(-175 175) rotate(270)" font-size="13" text-anchor="middle">
		<text x="0" y="135" fill="#000000">Annual Inflation Rate</text>
	</g>
	<g id="percentage_numbers" transform="translate(-5 0)" font-size="12" text-anchor="end">

		<text x="0" y="87">40%</text>
		<text x="0" y="119">30%</text>
		<text x="0" y="151">20%</text>
		<text x="0" y="183">10%</text>
		<text x="0" y="215">0%</text>
		<text x="0" y="247">-10%</text>
		<text x="0" y="279">-20%</text>

	</g>
	<!-- X-axis -->
	<g id="x_axis_numbers" transform="translate(0 60)" font-size="13" text-anchor="middle">
		<text x="0" y="250">1650</text>
		<text x="70" y="250">1700</text>
		<text x="140" y="250">1750</text>
		<text x="210" y="250">1800</text>
		<text x="280" y="250">1850</text>
		<text x="350" y="250">1900</text>
		<text x="420" y="250">1950</text>
		<text x="490" y="250">2000</text>
	</g>
</g>
</svg>